<?xml version="1.0" encoding="UTF-8"?>
<svg version="1.1" xmlns="http://www.w3.org/2000/svg" width="512" height="512">
<path d="M0 0 C3.32725047 1.63384978 6.59270382 3.37111766 9.85295105 5.13404846 C11.76245105 6.13987068 13.6754101 7.13883773 15.58910084 8.13665867 C16.96360237 8.85434776 18.33707074 9.5740206 19.70927715 10.29608822 C24.1757841 12.63413858 28.67829242 14.8636275 33.23934746 17.01075935 C52.52922426 26.09340925 71.54354057 35.74989362 90.6099658 45.28914309 C95.92592167 47.94840118 101.24286608 50.60568158 106.55964661 53.26329041 C115.45777477 57.71145065 124.3550683 62.1612768 133.25187683 66.61207581 C143.54338754 71.76056926 153.83635554 76.90614026 164.13005674 82.05025256 C172.99659062 86.48125537 181.86234909 90.91380664 190.72745287 95.34766996 C196.01125634 97.99035156 201.2953294 100.63249026 206.58010483 103.27322769 C211.52731082 105.74539284 216.47354415 108.21949302 221.41901398 110.69512939 C223.23722829 111.60490039 225.05578735 112.51398276 226.87470627 113.42234421 C229.34603098 114.65665142 231.81612461 115.89338725 234.28590393 117.13078308 C235.01436441 117.49389796 235.74282489 117.85701284 236.49335992 118.2311312 C241.4262987 120.70739611 241.4262987 120.70739611 242.54045105 121.82154846 C242.63691538 123.20290176 242.66417009 124.58916067 242.66349888 125.97387791 C242.66548993 126.87458501 242.66748098 127.77529212 242.66953236 128.70329338 C242.66661952 129.7042452 242.66370668 130.70519702 242.66070557 131.73648071 C242.6619872 133.31809711 242.6619872 133.31809711 242.66329473 134.93166536 C242.66495268 138.49401628 242.65942304 142.05632096 242.65397644 145.6186676 C242.65369461 148.16065469 242.65385222 150.70264186 242.65441895 153.24462891 C242.65464727 158.73236755 242.65179576 164.22009108 242.64618111 169.70782661 C242.63806843 177.64225649 242.63545113 185.5766806 242.63419311 193.51111417 C242.63200223 206.38290607 242.62534115 219.25469164 242.6158905 232.1264801 C242.60671733 244.63331572 242.59963604 257.14014962 242.59538269 269.64698792 C242.59498861 270.80256112 242.59498861 270.80256112 242.59458656 271.98147923 C242.59328156 275.84609897 242.59201784 279.71071872 242.59077466 283.57533848 C242.5804009 315.65741307 242.56278159 347.73947989 242.54045105 379.82154846 C229.75413666 386.6096738 216.89098185 393.21901628 203.93986511 399.6865387 C202.06299264 400.62565482 200.18620489 401.56494026 198.30949402 402.50437927 C193.27297105 405.0248943 188.23521108 407.542927 183.19714832 410.06036258 C177.88224677 412.7165333 172.56833434 415.37468163 167.2542572 418.03250122 C158.33181834 422.49462651 149.40854457 426.95507868 140.48478699 431.41456604 C130.22772618 436.54037912 119.97210608 441.66906565 109.7172339 446.79925579 C100.85361274 451.23334982 91.98919859 455.66585551 83.12414336 460.09708172 C77.85552095 462.73062093 72.58715582 465.36467098 67.31951141 468.00016594 C27.4303801 487.95579469 27.4303801 487.95579469 13.06145096 494.70532131 C8.55799521 496.82330784 4.19019797 499.06820542 -0.14704895 501.50904846 C-6.01294963 504.39911329 -11.00188376 504.82297512 -17.45954895 503.82154846 C-22.81680272 501.83906292 -27.75472413 499.22209316 -32.77204895 496.50904846 C-34.68154895 495.50322625 -36.594508 494.50425919 -38.50819874 493.50643826 C-39.88270027 492.78874916 -41.25616864 492.06907632 -42.62837505 491.34700871 C-47.094882 489.00895835 -51.59739032 486.77946942 -56.15844536 484.63233757 C-75.44832216 475.54968768 -94.46263847 465.8932033 -113.5290637 456.35395384 C-118.84501957 453.69469574 -124.16196398 451.03741535 -129.47874451 448.37980652 C-138.37687267 443.93164627 -147.2741662 439.48182012 -156.17097473 435.03102112 C-166.46248544 429.88252767 -176.75545344 424.73695666 -187.04915464 419.59284437 C-195.91568852 415.16184155 -204.78144699 410.72929029 -213.64655077 406.29542696 C-218.93035424 403.65274537 -224.2144273 401.01060666 -229.49920273 398.36986923 C-234.44640872 395.89770409 -239.39264205 393.4236039 -244.33811188 390.94796753 C-246.15632619 390.03819654 -247.97488525 389.12911416 -249.79380417 388.22075272 C-252.26512888 386.9864455 -254.73522251 385.74970968 -257.20500183 384.51231384 C-257.93346231 384.14919896 -258.66192279 383.78608409 -259.41245782 383.41196573 C-264.3453966 380.93570081 -264.3453966 380.93570081 -265.45954895 379.82154846 C-265.55601328 378.44019517 -265.58326799 377.05393626 -265.58259678 375.66921902 C-265.58458783 374.76851191 -265.58657888 373.8678048 -265.58863026 372.93980354 C-265.58571742 371.93885172 -265.58280458 370.9378999 -265.57980347 369.90661621 C-265.58065789 368.85220528 -265.58151232 367.79779434 -265.58239263 366.71143156 C-265.58405058 363.14908064 -265.57852094 359.58677596 -265.57307434 356.02442932 C-265.57279251 353.48244223 -265.57295012 350.94045506 -265.57351685 348.39846802 C-265.57374517 342.91072938 -265.57089366 337.42300585 -265.56527901 331.93527031 C-265.55716633 324.00084044 -265.55454903 316.06641632 -265.55329102 308.13198275 C-265.55110013 295.26019086 -265.54443905 282.38840528 -265.5349884 269.51661682 C-265.52581523 257.00978121 -265.51873394 244.50294731 -265.51448059 231.99610901 C-265.51421787 231.22572687 -265.51395514 230.45534474 -265.51368446 229.66161769 C-265.51237946 225.79699795 -265.51111574 221.9323782 -265.50987256 218.06775844 C-265.4994988 185.98568385 -265.48187949 153.90361703 -265.45954895 121.82154846 C-252.67323456 115.03342312 -239.81007976 108.42408064 -226.85896301 101.95655823 C-224.98209054 101.01744211 -223.10530279 100.07815667 -221.22859192 99.13871765 C-216.19206895 96.61820262 -211.15430898 94.10016992 -206.11624622 91.58273435 C-200.80134467 88.92656362 -195.48743224 86.2684153 -190.1733551 83.6105957 C-181.25091624 79.14847041 -172.32764247 74.68801825 -163.40388489 70.22853088 C-153.14682408 65.10271781 -142.89120398 59.97403128 -132.6363318 54.84384114 C-123.77271064 50.4097471 -114.90829649 45.97724142 -106.04324126 41.5460152 C-100.77461885 38.912476 -95.50625372 36.27842595 -90.23860931 33.64293098 C-50.349478 13.68730223 -50.349478 13.68730223 -35.98054886 6.93777561 C-31.47709311 4.81978908 -27.10929587 2.57489151 -22.77204895 0.13404846 C-15.09659191 -3.64756491 -7.82465378 -3.5604642 0 0 Z " fill="#6C1E7D" transform="translate(267.4595489501953,4.1784515380859375)"/>
<path d="M0 0 C3.32725047 1.63384978 6.59270382 3.37111766 9.85295105 5.13404846 C11.76245105 6.13987068 13.6754101 7.13883773 15.58910084 8.13665867 C16.96360237 8.85434776 18.33707074 9.5740206 19.70927715 10.29608822 C24.1757841 12.63413858 28.67829242 14.8636275 33.23934746 17.01075935 C52.52922426 26.09340925 71.54354057 35.74989362 90.6099658 45.28914309 C95.92592167 47.94840118 101.24286608 50.60568158 106.55964661 53.26329041 C115.45777477 57.71145065 124.3550683 62.1612768 133.25187683 66.61207581 C143.54338754 71.76056926 153.83635554 76.90614026 164.13005674 82.05025256 C172.99659062 86.48125537 181.86234909 90.91380664 190.72745287 95.34766996 C196.01125634 97.99035156 201.2953294 100.63249026 206.58010483 103.27322769 C211.52731082 105.74539284 216.47354415 108.21949302 221.41901398 110.69512939 C223.23722829 111.60490039 225.05578735 112.51398276 226.87470627 113.42234421 C229.34603098 114.65665142 231.81612461 115.89338725 234.28590393 117.13078308 C235.01436441 117.49389796 235.74282489 117.85701284 236.49335992 118.2311312 C241.4262987 120.70739611 241.4262987 120.70739611 242.54045105 121.82154846 C242.63691538 123.20290176 242.66417009 124.58916067 242.66349888 125.97387791 C242.66548993 126.87458501 242.66748098 127.77529212 242.66953236 128.70329338 C242.66661952 129.7042452 242.66370668 130.70519702 242.66070557 131.73648071 C242.6619872 133.31809711 242.6619872 133.31809711 242.66329473 134.93166536 C242.66495268 138.49401628 242.65942304 142.05632096 242.65397644 145.6186676 C242.65369461 148.16065469 242.65385222 150.70264186 242.65441895 153.24462891 C242.65464727 158.73236755 242.65179576 164.22009108 242.64618111 169.70782661 C242.63806843 177.64225649 242.63545113 185.5766806 242.63419311 193.51111417 C242.63200223 206.38290607 242.62534115 219.25469164 242.6158905 232.1264801 C242.60671733 244.63331572 242.59963604 257.14014962 242.59538269 269.64698792 C242.59498861 270.80256112 242.59498861 270.80256112 242.59458656 271.98147923 C242.59328156 275.84609897 242.59201784 279.71071872 242.59077466 283.57533848 C242.5804009 315.65741307 242.56278159 347.73947989 242.54045105 379.82154846 C229.75413666 386.6096738 216.89098185 393.21901628 203.93986511 399.6865387 C202.06299264 400.62565482 200.18620489 401.56494026 198.30949402 402.50437927 C193.27297105 405.0248943 188.23521108 407.542927 183.19714832 410.06036258 C177.88224677 412.7165333 172.56833434 415.37468163 167.2542572 418.03250122 C158.33181834 422.49462651 149.40854457 426.95507868 140.48478699 431.41456604 C130.22772618 436.54037912 119.97210608 441.66906565 109.7172339 446.79925579 C100.85361274 451.23334982 91.98919859 455.66585551 83.12414336 460.09708172 C77.85552095 462.73062093 72.58715582 465.36467098 67.31951141 468.00016594 C27.4303801 487.95579469 27.4303801 487.95579469 13.06145096 494.70532131 C8.55799521 496.82330784 4.19019797 499.06820542 -0.14704895 501.50904846 C-6.01294963 504.39911329 -11.00188376 504.82297512 -17.45954895 503.82154846 C-22.81680272 501.83906292 -27.75472413 499.22209316 -32.77204895 496.50904846 C-34.68154895 495.50322625 -36.594508 494.50425919 -38.50819874 493.50643826 C-39.88270027 492.78874916 -41.25616864 492.06907632 -42.62837505 491.34700871 C-47.094882 489.00895835 -51.59739032 486.77946942 -56.15844536 484.63233757 C-75.44832216 475.54968768 -94.46263847 465.8932033 -113.5290637 456.35395384 C-118.84501957 453.69469574 -124.16196398 451.03741535 -129.47874451 448.37980652 C-138.37687267 443.93164627 -147.2741662 439.48182012 -156.17097473 435.03102112 C-166.46248544 429.88252767 -176.75545344 424.73695666 -187.04915464 419.59284437 C-195.91568852 415.16184155 -204.78144699 410.72929029 -213.64655077 406.29542696 C-218.93035424 403.65274537 -224.2144273 401.01060666 -229.49920273 398.36986923 C-234.44640872 395.89770409 -239.39264205 393.4236039 -244.33811188 390.94796753 C-246.15632619 390.03819654 -247.97488525 389.12911416 -249.79380417 388.22075272 C-252.26512888 386.9864455 -254.73522251 385.74970968 -257.20500183 384.51231384 C-257.93346231 384.14919896 -258.66192279 383.78608409 -259.41245782 383.41196573 C-264.3453966 380.93570081 -264.3453966 380.93570081 -265.45954895 379.82154846 C-265.55601328 378.44019517 -265.58326799 377.05393626 -265.58259678 375.66921902 C-265.58458783 374.76851191 -265.58657888 373.8678048 -265.58863026 372.93980354 C-265.58571742 371.93885172 -265.58280458 370.9378999 -265.57980347 369.90661621 C-265.58065789 368.85220528 -265.58151232 367.79779434 -265.58239263 366.71143156 C-265.58405058 363.14908064 -265.57852094 359.58677596 -265.57307434 356.02442932 C-265.57279251 353.48244223 -265.57295012 350.94045506 -265.57351685 348.39846802 C-265.57374517 342.91072938 -265.57089366 337.42300585 -265.56527901 331.93527031 C-265.55716633 324.00084044 -265.55454903 316.06641632 -265.55329102 308.13198275 C-265.55110013 295.26019086 -265.54443905 282.38840528 -265.5349884 269.51661682 C-265.52581523 257.00978121 -265.51873394 244.50294731 -265.51448059 231.99610901 C-265.51421787 231.22572687 -265.51395514 230.45534474 -265.51368446 229.66161769 C-265.51237946 225.79699795 -265.51111574 221.9323782 -265.50987256 218.06775844 C-265.4994988 185.98568385 -265.48187949 153.90361703 -265.45954895 121.82154846 C-252.67323456 115.03342312 -239.81007976 108.42408064 -226.85896301 101.95655823 C-224.98209054 101.01744211 -223.10530279 100.07815667 -221.22859192 99.13871765 C-216.19206895 96.61820262 -211.15430898 94.10016992 -206.11624622 91.58273435 C-200.80134467 88.92656362 -195.48743224 86.2684153 -190.1733551 83.6105957 C-181.25091624 79.14847041 -172.32764247 74.68801825 -163.40388489 70.22853088 C-153.14682408 65.10271781 -142.89120398 59.97403128 -132.6363318 54.84384114 C-123.77271064 50.4097471 -114.90829649 45.97724142 -106.04324126 41.5460152 C-100.77461885 38.912476 -95.50625372 36.27842595 -90.23860931 33.64293098 C-50.349478 13.68730223 -50.349478 13.68730223 -35.98054886 6.93777561 C-31.47709311 4.81978908 -27.10929587 2.57489151 -22.77204895 0.13404846 C-15.09659191 -3.64756491 -7.82465378 -3.5604642 0 0 Z M-19.89704895 19.19654846 C-20.98568489 19.7140416 -20.98568489 19.7140416 -22.09631348 20.24198914 C-27.48103286 22.82636101 -32.77762107 25.53923134 -38.04548645 28.35279846 C-49.4814183 34.41328597 -61.061942 40.17797791 -72.64704895 45.94654846 C-74.73763946 46.98932533 -76.82813461 48.03229341 -78.91853333 49.07545471 C-82.95923518 51.09171727 -87.00085566 53.10612157 -91.04304504 55.11940002 C-94.24212565 56.71357657 -97.43880316 58.31215528 -100.62995911 59.9221344 C-108.32918993 63.80316716 -116.08014234 67.56170633 -123.8618927 71.27467346 C-138.95019896 78.48314472 -153.89205919 85.98017957 -168.83863831 93.47676086 C-172.49603667 95.31062312 -176.15459707 97.14216406 -179.81306458 98.97389221 C-183.95082063 101.04578404 -188.08847336 103.11788008 -192.22531128 105.19160461 C-193.16113242 105.66069937 -193.16113242 105.66069937 -194.11585903 106.13927078 C-195.35127477 106.75863311 -196.58662532 107.37812547 -197.821908 107.99775314 C-201.11418771 109.64860386 -204.40862126 111.29499476 -207.70585632 112.93592834 C-208.41553779 113.28953053 -209.12521925 113.64313271 -209.85640621 114.0074501 C-211.20662498 114.68001696 -212.55729509 115.3516789 -213.90852451 116.02221298 C-219.24087264 118.67981156 -224.4737296 121.4968985 -229.6900177 124.37623596 C-232.45954895 125.82154846 -232.45954895 125.82154846 -237.45954895 127.82154846 C-240.75954895 129.47154846 -244.05954895 131.12154846 -247.45954895 132.82154846 C-247.45954895 210.70154846 -247.45954895 288.58154846 -247.45954895 368.82154846 C-244.15954895 370.47154846 -240.85954895 372.12154846 -237.45954895 373.82154846 C-235.53949036 374.79027893 -235.53949036 374.79027893 -233.5806427 375.77857971 C-227.54325196 378.82273737 -221.49680797 381.82831686 -215.36083984 384.66967773 C-208.99541133 387.62229274 -202.73361431 390.69344201 -196.5493927 394.00904846 C-183.12485989 401.13375461 -169.50400962 407.87483468 -155.90730286 414.66285706 C-152.09336766 416.56697052 -148.28124778 418.47468652 -144.46964836 420.38347054 C-141.47417398 421.88303732 -138.47772708 423.38065267 -135.48100662 424.87772751 C-134.07688921 425.57945926 -132.6730538 426.28175563 -131.26954269 426.98469925 C-123.02428486 431.11278326 -114.74128895 435.14247576 -106.38281822 439.03697395 C-100.42645579 441.8151236 -94.54404637 444.73145773 -88.67878723 447.69654846 C-84.8611039 449.62195925 -81.03526605 451.53064469 -77.20744324 453.43580627 C-73.79949048 455.13200213 -70.39310461 456.83133364 -66.98664856 458.53053284 C-65.25881471 459.39192488 -63.53062372 460.25260093 -61.80207825 461.11256409 C-52.01951494 465.98030111 -42.2929224 470.92275743 -32.66926575 476.09791565 C-28.60826561 478.27869157 -24.53351441 480.41275252 -20.39704895 482.44654846 C-19.70417786 482.80877502 -19.01130676 483.17100159 -18.29743958 483.54420471 C-15.03009464 485.13606755 -13.13551758 485.99870278 -9.55305481 485.05982971 C-6.68464351 483.91165024 -3.94212746 482.67704127 -1.18611145 481.28248596 C-0.19482239 480.78361877 0.79646667 480.28475159 1.8177948 479.77076721 C2.84002136 479.25127502 3.86224792 478.73178284 4.91545105 478.19654846 C6.92322512 477.18345146 8.93103841 476.17043218 10.93888855 475.15748596 C12.52588562 474.35456116 12.52588562 474.35456116 14.14494324 473.53541565 C19.85945792 470.65104025 25.58752735 467.79382184 31.31419373 464.93367004 C35.30686761 462.93913925 39.29858665 460.94269872 43.29045105 458.94654846 C44.98836363 458.09758196 46.68628033 457.24862369 48.38420105 456.39967346 C49.23369324 455.97492737 50.08318542 455.55018127 50.9584198 455.11256409 C53.53784688 453.82285055 56.11727397 452.533137 58.69670105 451.24342346 C59.54078522 450.82136124 60.38486938 450.39929901 61.25453186 449.96444702 C62.93669731 449.12340478 64.6189273 448.2824916 66.30122375 447.44171143 C70.18961997 445.49818586 74.07712354 443.55294203 77.96183777 441.60206604 C85.49211852 437.82269383 93.05144908 434.11731201 100.66545105 430.50904846 C111.89297913 425.15106316 123.03625335 419.63018616 134.16545105 414.07154846 C134.9674292 413.67180817 135.76940735 413.27206787 136.59568787 412.86021423 C145.92004855 408.20997626 155.17749461 403.46069573 164.35539246 398.52760315 C174.12703929 393.29348786 184.12173566 388.51652427 194.16471863 383.83033752 C201.69626058 380.30504554 209.11742216 376.56848563 216.54045105 372.82154846 C219.18045105 371.50154846 221.82045105 370.18154846 224.54045105 368.82154846 C224.54045105 290.94154846 224.54045105 213.06154846 224.54045105 132.82154846 C218.93045105 130.18154846 213.32045105 127.54154846 207.54045105 124.82154846 C204.68349423 123.34638775 201.85490788 121.86874719 199.04045105 120.32154846 C193.45026328 117.30462173 187.80811943 114.48303947 182.04045105 111.82154846 C175.61983782 108.85603003 169.3438401 105.68870771 163.12638855 102.31764221 C156.48369326 98.73031395 149.71701203 95.39275739 142.95985413 92.02833557 C139.43685295 90.27107881 135.91836007 88.50487464 132.39971924 86.73890686 C128.47198709 84.76782592 124.54295892 82.79933501 120.61393738 80.83082581 C118.60804388 79.82535807 116.60250926 78.81917407 114.59733582 77.81227112 C104.29331999 72.63882628 93.98099291 67.50758121 83.52923584 62.63856506 C76.85366096 59.52158074 70.27318168 56.22638324 63.69621277 52.90748596 C59.73248309 50.91080764 55.7608109 48.92999997 51.79045105 46.94654846 C50.09250171 46.09765548 48.39458529 45.24869666 46.69670105 44.39967346 C45.84720886 43.97492737 44.99771667 43.55018127 44.1224823 43.11256409 C41.54305522 41.82285055 38.96362813 40.533137 36.38420105 39.24342346 C35.53993561 38.82129578 34.69567017 38.39916809 33.82582092 37.96424866 C32.14540505 37.12403061 30.46500528 36.28378034 28.78462219 35.4434967 C24.87011415 33.48607315 20.9553803 31.52910535 17.03996277 29.57350159 C5.63983543 23.87856863 5.63983543 23.87856863 0.54826355 21.29029846 C-0.11302551 20.95514221 -0.77431458 20.61998596 -1.4556427 20.27467346 C-2.76435279 19.61079558 -4.07153306 18.94389695 -5.3775177 18.27467346 C-11.60822216 15.12810528 -13.82191152 16.30373144 -19.89704895 19.19654846 Z " fill="#5B1D69" transform="translate(267.4595489501953,4.1784515380859375)"/>
</svg>
