<?xml version="1.0" encoding="UTF-8"?>
<svg version="1.1" xmlns="http://www.w3.org/2000/svg" width="51" height="51">
<path d="M0 0 C1.75943022 0.90788171 3.50823113 1.836643 5.24609375 2.78515625 C6.14650391 3.25373047 7.04691406 3.72230469 7.97460938 4.20507812 C14.42379712 7.58785962 14.42379712 7.58785962 15.68359375 8.84765625 C15.7713498 10.99324452 15.79054594 13.14170046 15.78125 15.2890625 C15.77802734 16.59423828 15.77480469 17.89941406 15.77148438 19.24414062 C15.76312776 20.63281315 15.7546628 22.02148502 15.74609375 23.41015625 C15.74108041 24.80273281 15.73651722 26.19531106 15.73242188 27.58789062 C15.72058809 31.00785495 15.70410255 34.42773469 15.68359375 37.84765625 C12.19721373 39.70777851 8.6926094 41.53064688 5.18359375 43.34765625 C4.20132813 43.87230469 3.2190625 44.39695313 2.20703125 44.9375 C-3.64367618 47.94086315 -7.74134281 49.93805902 -14.31640625 48.84765625 C-17.94704366 47.46404448 -21.33155522 45.74257649 -24.75390625 43.91015625 C-25.66333984 43.44158203 -26.57277344 42.97300781 -27.50976562 42.49023438 C-34.08846079 39.07560171 -34.08846079 39.07560171 -35.31640625 37.84765625 C-35.40424167 35.62910361 -35.42335234 33.40777129 -35.4140625 31.1875 C-35.41264755 30.5230336 -35.4112326 29.8585672 -35.40977478 29.17396545 C-35.40416143 27.04431726 -35.39160679 24.91477286 -35.37890625 22.78515625 C-35.37389296 21.34440256 -35.36932976 19.90364722 -35.36523438 18.46289062 C-35.3541877 14.92444523 -35.33691417 11.38606086 -35.31640625 7.84765625 C-32.20886346 6.14687592 -29.07814063 4.49388564 -25.94140625 2.84765625 C-24.63623047 2.13222656 -24.63623047 2.13222656 -23.3046875 1.40234375 C-15.04343017 -2.88127116 -8.62557904 -3.90797327 0 0 Z " fill="#701C7C" transform="translate(35.31640625,2.15234375)"/>
<path d="M0 0 C1.75943022 0.90788171 3.50823113 1.836643 5.24609375 2.78515625 C6.14650391 3.25373047 7.04691406 3.72230469 7.97460938 4.20507812 C14.42379712 7.58785962 14.42379712 7.58785962 15.68359375 8.84765625 C15.7713498 10.99324452 15.79054594 13.14170046 15.78125 15.2890625 C15.77802734 16.59423828 15.77480469 17.89941406 15.77148438 19.24414062 C15.76312776 20.63281315 15.7546628 22.02148502 15.74609375 23.41015625 C15.74108041 24.80273281 15.73651722 26.19531106 15.73242188 27.58789062 C15.72058809 31.00785495 15.70410255 34.42773469 15.68359375 37.84765625 C12.19721373 39.70777851 8.6926094 41.53064688 5.18359375 43.34765625 C4.20132813 43.87230469 3.2190625 44.39695313 2.20703125 44.9375 C-3.64367618 47.94086315 -7.74134281 49.93805902 -14.31640625 48.84765625 C-17.94704366 47.46404448 -21.33155522 45.74257649 -24.75390625 43.91015625 C-25.66333984 43.44158203 -26.57277344 42.97300781 -27.50976562 42.49023438 C-34.08846079 39.07560171 -34.08846079 39.07560171 -35.31640625 37.84765625 C-35.40424167 35.62910361 -35.42335234 33.40777129 -35.4140625 31.1875 C-35.41264755 30.5230336 -35.4112326 29.8585672 -35.40977478 29.17396545 C-35.40416143 27.04431726 -35.39160679 24.91477286 -35.37890625 22.78515625 C-35.37389296 21.34440256 -35.36932976 19.90364722 -35.36523438 18.46289062 C-35.3541877 14.92444523 -35.33691417 11.38606086 -35.31640625 7.84765625 C-32.20886346 6.14687592 -29.07814063 4.49388564 -25.94140625 2.84765625 C-24.63623047 2.13222656 -24.63623047 2.13222656 -23.3046875 1.40234375 C-15.04343017 -2.88127116 -8.62557904 -3.90797327 0 0 Z M-17.08203125 4.03515625 C-17.88415039 4.44121094 -18.68626953 4.84726563 -19.51269531 5.265625 C-20.52041992 5.78769531 -21.52814453 6.30976563 -22.56640625 6.84765625 C-25.78390625 8.49765625 -29.00140625 10.14765625 -32.31640625 11.84765625 C-32.31640625 19.10765625 -32.31640625 26.36765625 -32.31640625 33.84765625 C-29.26390625 35.47703125 -26.21140625 37.10640625 -23.06640625 38.78515625 C-22.11088867 39.29812256 -21.15537109 39.81108887 -20.17089844 40.33959961 C-19.40938477 40.74315674 -18.64787109 41.14671387 -17.86328125 41.5625 C-17.08823242 41.9762085 -16.31318359 42.38991699 -15.51464844 42.81616211 C-11.40009435 44.78741361 -11.40009435 44.78741361 -7.04223633 44.05908203 C-5.82636841 43.43235596 -5.82636841 43.43235596 -4.5859375 42.79296875 C-3.70099609 42.34308594 -2.81605469 41.89320312 -1.90429688 41.4296875 C-0.98841797 40.94886719 -0.07253906 40.46804687 0.87109375 39.97265625 C1.79857422 39.49957031 2.72605469 39.02648438 3.68164062 38.5390625 C7.9487158 36.58190141 7.9487158 36.58190141 11.68359375 33.84765625 C11.77059717 32.21292743 11.79060438 30.5745157 11.78125 28.9375 C11.77802734 27.94814453 11.77480469 26.95878906 11.77148438 25.93945312 C11.76310547 24.89853516 11.75472656 23.85761719 11.74609375 22.78515625 C11.74158203 21.74037109 11.73707031 20.69558594 11.73242188 19.61914062 C11.72059288 17.02858965 11.70411064 14.43815066 11.68359375 11.84765625 C8.44020577 10.16788507 5.18789008 8.50618193 1.93359375 6.84765625 C1.01320312 6.37070313 0.0928125 5.89375 -0.85546875 5.40234375 C-2.18964844 4.72558594 -2.18964844 4.72558594 -3.55078125 4.03515625 C-4.36772461 3.61621094 -5.18466797 3.19726562 -6.02636719 2.765625 C-10.36027431 1.02836585 -13.15930667 2.02350262 -17.08203125 4.03515625 Z " fill="#571861" transform="translate(35.31640625,2.15234375)"/>
</svg>
